<svg width="1200" height="630" viewBox="0 0 1200 630" xmlns="http://www.w3.org/2000/svg">
  <rect width="1200" height="630" fill="#0b0b14"/>
  <defs>
    <radialGradient id="glow1" cx="85%" cy="10%" r="50%">
      <stop offset="0%" stop-color="#e11d48" stop-opacity="0.18"/>
      <stop offset="100%" stop-color="transparent"/>
    </radialGradient>
    <radialGradient id="glow2" cx="10%" cy="90%" r="45%">
      <stop offset="0%" stop-color="#be123c" stop-opacity="0.14"/>
      <stop offset="100%" stop-color="transparent"/>
    </radialGradient>
    <linearGradient id="logo-g1" x1="0" y1="0" x2="1" y2="1">
      <stop offset="0%" stop-color="#fda4af"/>
      <stop offset="100%" stop-color="#e11d48"/>
    </linearGradient>
    <linearGradient id="logo-g2" x1="0" y1="1" x2="1" y2="0">
      <stop offset="0%" stop-color="#f43f5e" stop-opacity="0.25"/>
      <stop offset="100%" stop-color="#fb7185" stop-opacity="0.55"/>
    </linearGradient>
  </defs>
  <rect width="1200" height="630" fill="url(#glow1)"/>
  <rect width="1200" height="630" fill="url(#glow2)"/>
  <!-- Logo -->
  <g transform="translate(100, 220) scale(2.5)">
    <path d="M20 2 L28 10 L28 18 L38 20 L28 22 L28 30 L20 38 L12 30 L12 22 L2 20 L12 18 L12 10 Z" fill="url(#logo-g2)"/>
    <path d="M20 8 L25 13 L25 18 L30 20 L25 22 L25 27 L20 32 L15 27 L15 22 L10 20 L15 18 L15 13 Z" fill="url(#logo-g1)"/>
    <rect x="18.5" y="14" width="3" height="12" rx="0.5" fill="#0b0b14"/>
  </g>
  <!-- Text -->
  <text x="230" y="280" font-family="system-ui, sans-serif" font-size="56" font-weight="600" fill="white" letter-spacing="-1">AztecForge</text>
  <text x="230" y="330" font-family="system-ui, sans-serif" font-size="24" fill="#9ca3af">Private community incentives on Aztec Network</text>
  <!-- Pills -->
  <g transform="translate(230, 370)">
    <rect x="0" y="0" width="90" height="30" rx="6" fill="#f43f5e" fill-opacity="0.1" stroke="#f43f5e" stroke-opacity="0.2"/>
    <text x="45" y="20" font-family="system-ui, sans-serif" font-size="13" fill="#fb7185" text-anchor="middle">Bounties</text>
    <rect x="100" y="0" width="110" height="30" rx="6" fill="#f43f5e" fill-opacity="0.1" stroke="#f43f5e" stroke-opacity="0.2"/>
    <text x="155" y="20" font-family="system-ui, sans-serif" font-size="13" fill="#fb7185" text-anchor="middle">Hackathons</text>
    <rect x="220" y="0" width="80" height="30" rx="6" fill="#f43f5e" fill-opacity="0.1" stroke="#f43f5e" stroke-opacity="0.2"/>
    <text x="260" y="20" font-family="system-ui, sans-serif" font-size="13" fill="#fb7185" text-anchor="middle">Quests</text>
    <rect x="310" y="0" width="110" height="30" rx="6" fill="#f43f5e" fill-opacity="0.1" stroke="#f43f5e" stroke-opacity="0.2"/>
    <text x="365" y="20" font-family="system-ui, sans-serif" font-size="13" fill="#fb7185" text-anchor="middle">Reputation</text>
  </g>
</svg>
